<svg width="1920" height="1080" viewBox="0 0 1920 1080" fill="none" xmlns="http://www.w3.org/2000/svg">
<g clip-path="url(#clip0_1_3)">
<rect width="1920" height="1080" fill="url(#paint0_linear_1_3)"/>
<g opacity="0.1">
<path d="M-46 650.97C-39.3668 639.899 379.603 -16.5199 478.576 -16.5199C577.55 -16.5199 622.684 67.6022 717.404 90.0058C812.123 112.409 881.212 131.127 1056.19 75.0247C1151.09 44.5984 1153.42 -5.9417 1209.4 -17.39C1265.39 -28.8382 1406.25 10.8167 1591.09 10.8167C1775.93 10.8167 2186.26 -85.9039 2234 -198.51" stroke="#001AFF" stroke-width="2.52125"/>
<path d="M-13.225 185.853C-4.63472 179.371 392.088 399.278 520.263 399.278C648.438 399.278 706.888 448.529 829.554 461.645C952.22 474.762 1041.69 485.72 1268.3 452.874C1391.19 435.061 1394.21 405.472 1466.72 398.769C1539.22 392.067 1639.2 458.305 1763.91 474.762C1840.49 484.869 1880.64 473.185 1983.59 474.762C2086.55 476.339 1219.83 -307.66 1381.86 -328" stroke="#00F0FF" stroke-width="2.52125"/>
<path d="M-45.1984 639.623C-41.7531 634.064 71.7286 476.625 189.921 315.173C308.114 153.721 435.867 -5.18029 487.139 -4.86037C586.69 -4.54046 632.906 77.7972 730.842 98.8532C826.249 120.276 893.726 137.816 1066.2 82.9179C1160.56 53.0702 1165.27 5.37835 1222.93 -5.38929C1279.42 -16.3118 1417.82 22.0909 1600.67 22.1294C1783.51 22.1679 2162.69 -91.3156 2213.22 -201.672" stroke="#001FFF" stroke-width="2.52125"/>
<path d="M-44.3969 628.28C-40.823 622.698 79.7397 474.693 198.182 317.277C316.624 159.861 442.645 6.16403 495.701 6.80385C595.831 7.44368 643.128 87.9968 744.281 107.705C840.375 128.147 906.24 144.509 1076.22 90.8158C1170.02 61.5467 1177.12 16.7031 1236.46 6.61607C1293.45 -3.78072 1429.4 33.3698 1610.24 33.4468C1791.09 33.5237 2139.12 -96.7226 2192.44 -204.828" stroke="#0024FF" stroke-width="2.52125"/>
<path d="M-43.6064 616.932C-39.9039 611.328 87.7399 472.756 206.432 319.377C325.124 165.997 449.412 17.5036 504.253 18.4634C604.96 19.4231 653.338 98.1918 757.708 116.553C854.489 136.014 918.744 151.197 1086.22 98.7089C1179.48 70.0185 1188.96 28.0231 1249.97 18.6167C1307.47 8.74564 1440.96 44.6441 1619.81 44.7594C1798.66 44.8748 2115.54 -102.134 2171.64 -207.99" stroke="#0029FF" stroke-width="2.52125"/>
<path d="M-42.8049 605.59C-38.9738 599.962 95.751 470.824 214.692 321.481C333.634 172.138 456.189 28.8479 512.816 30.1276C614.1 31.4072 663.56 108.391 771.147 125.405C868.615 143.885 931.258 157.89 1096.24 106.607C1188.95 78.495 1200.81 39.3479 1263.5 30.6221C1321.5 21.2768 1452.53 55.923 1629.38 56.0769C1806.23 56.2307 2091.97 -107.541 2150.86 -211.146" stroke="#002EFF" stroke-width="2.52125"/>
<path d="M-42.0033 594.247C-38.0436 588.597 103.762 468.893 222.953 323.586C342.144 178.278 462.967 40.1926 521.378 41.7922C623.241 43.3917 673.782 118.591 784.585 134.257C882.741 151.756 943.772 164.583 1106.25 114.505C1198.42 86.9718 1212.66 50.6729 1277.03 42.6278C1335.53 33.8082 1464.1 67.2023 1638.96 67.3946C1813.81 67.5869 2068.4 -112.948 2130.08 -214.302" stroke="#0034FF" stroke-width="2.52125"/>
<path d="M-41.2018 582.9C-37.1135 577.226 111.773 466.956 231.214 325.685C350.654 184.414 469.745 51.532 529.941 53.4514C632.381 55.3709 684.004 128.786 798.024 143.104C896.867 159.623 956.286 171.271 1116.27 122.398C1207.89 95.4434 1224.51 61.9927 1290.55 54.6282C1349.56 46.3343 1475.68 78.4763 1648.53 78.707C1821.39 78.9378 2044.83 -118.36 2109.3 -217.464" stroke="#0039FF" stroke-width="2.52125"/>
<path d="M-40.4002 571.558C-36.1832 565.861 119.785 465.024 239.475 327.789C359.165 190.555 476.523 62.8765 538.503 65.1159C641.522 67.3553 694.226 138.986 811.462 151.957C910.992 167.494 968.801 177.964 1126.28 130.296C1217.36 103.92 1236.36 73.3177 1304.08 66.6338C1363.58 58.8657 1487.25 89.7554 1658.11 90.0247C1828.97 90.2939 2021.26 -123.767 2088.52 -220.62" stroke="#003EFF" stroke-width="2.52125"/>
<path d="M-39.6097 560.215C-35.2641 554.495 127.785 463.092 247.724 329.894C367.664 196.696 483.289 74.2211 547.055 76.7804C650.651 79.3397 704.437 149.186 824.89 160.809C925.107 175.366 981.304 184.658 1136.29 138.194C1226.82 112.397 1248.2 84.6427 1317.6 78.6394C1377.6 71.397 1498.81 101.035 1667.67 101.342C1836.54 101.65 1997.68 -129.174 2067.72 -223.777" stroke="#0043FF" stroke-width="2.52125"/>
<path d="M-38.8082 548.868C-34.3339 543.125 135.796 461.155 255.985 331.993C376.174 202.831 490.067 85.5605 555.618 88.4397C659.792 91.319 714.659 159.381 838.329 169.656C939.233 183.232 993.818 191.346 1146.3 146.087C1236.28 120.868 1260.05 95.9626 1331.12 90.6399C1391.63 83.9232 1510.38 112.309 1677.25 112.655C1844.11 113.001 1974.11 -134.585 2046.94 -226.938" stroke="#0049FF" stroke-width="2.52125"/>
<path d="M-38.0063 537.526C-33.4034 531.76 143.808 459.224 264.246 334.098C384.685 208.973 496.845 96.9056 564.18 100.105C668.933 103.304 724.881 169.581 851.767 178.509C953.359 191.104 1006.33 198.04 1156.32 153.986C1245.75 129.346 1271.9 107.288 1344.65 102.646C1405.66 96.4551 1521.96 123.588 1686.82 123.973C1851.69 124.358 1950.54 -139.992 2026.16 -230.094" stroke="#004EFF" stroke-width="2.52125"/>
<path d="M-37.2051 526.182C-32.4736 520.393 151.818 457.291 272.507 336.202C393.195 215.113 503.622 108.249 572.743 111.768C678.073 115.288 735.102 179.78 865.206 187.361C967.485 198.975 1018.85 204.732 1166.33 161.883C1255.22 137.822 1283.75 118.612 1358.18 114.651C1419.69 108.986 1533.53 134.867 1696.4 135.29C1859.27 135.713 1926.97 -145.399 2005.38 -233.251" stroke="#0053FF" stroke-width="2.52125"/>
<path d="M-36.4035 514.835C-31.5434 509.023 159.83 455.354 280.768 338.301C401.705 221.248 510.4 119.589 581.305 123.428C687.213 127.267 745.324 189.975 878.644 196.208C981.61 206.841 1031.36 211.42 1176.35 169.776C1264.69 146.293 1295.6 129.932 1371.7 126.651C1433.72 121.512 1545.1 146.141 1705.97 146.603C1866.85 147.064 1903.41 -150.811 1984.6 -236.413" stroke="#0058FF" stroke-width="2.52125"/>
<path d="M-35.613 503.493C-30.6243 497.657 167.83 453.422 289.017 340.406C410.205 227.389 517.167 130.933 589.857 135.092C696.342 139.251 755.535 200.175 892.072 205.061C995.725 214.712 1043.86 218.113 1186.35 177.674C1274.15 154.77 1307.44 141.257 1385.22 138.657C1447.74 134.043 1556.66 157.42 1715.54 157.92C1874.41 158.42 1879.82 -156.218 1963.8 -239.569" stroke="#005DFF" stroke-width="2.52125"/>
<path d="M-34.8114 492.15C-29.6941 486.292 175.841 451.49 297.278 342.51C418.715 233.53 523.945 142.278 598.419 146.757C705.483 151.235 765.757 210.375 905.51 213.913C1009.85 222.584 1056.38 224.807 1196.37 185.572C1283.62 163.247 1319.29 152.582 1398.74 150.662C1461.77 146.574 1568.23 168.699 1725.11 169.238C1881.99 169.776 1856.26 -161.625 1943.02 -242.726" stroke="#0063FF" stroke-width="2.52125"/>
<path d="M-34.0099 480.803C-28.7639 474.921 183.852 449.554 305.539 344.61C427.225 239.666 530.722 153.617 606.982 158.416C714.624 163.215 775.979 220.57 918.949 222.76C1023.98 230.45 1068.89 231.495 1206.38 193.465C1293.09 171.718 1331.14 163.902 1412.27 162.663C1475.79 159.101 1579.81 179.973 1734.69 180.55C1889.57 181.127 1832.69 -167.037 1922.24 -245.887" stroke="#0068FF" stroke-width="2.52125"/>
<path d="M-33.2084 469.46C-27.8338 463.556 191.863 447.622 313.799 346.714C435.735 245.806 537.5 164.962 615.545 170.081C723.764 175.199 786.201 230.77 932.387 231.612C1038.1 238.322 1081.41 238.188 1216.4 201.363C1302.56 180.195 1342.99 175.227 1425.8 174.669C1489.82 171.632 1591.38 191.252 1744.26 191.868C1897.15 192.483 1809.12 -172.443 1901.46 -249.043" stroke="#006DFF" stroke-width="2.52125"/>
<path d="M-32.4068 458.117C-26.9036 452.19 199.875 445.689 322.06 348.818C444.246 251.947 544.278 176.306 624.107 181.745C732.904 187.183 796.423 240.969 945.826 240.465C1052.23 246.193 1093.92 244.881 1226.41 209.261C1312.02 188.672 1354.84 186.552 1439.32 186.674C1503.85 184.163 1602.95 202.531 1753.84 203.185C1904.73 203.839 1785.55 -177.851 1880.68 -252.2" stroke="#0072FF" stroke-width="2.52125"/>
<path d="M-31.6164 446.77C-25.9845 440.819 207.875 443.753 330.31 350.918C452.745 258.083 551.044 187.646 632.659 193.404C742.034 199.163 806.633 251.164 959.253 249.312C1066.34 254.059 1106.42 251.569 1236.41 217.154C1321.48 197.143 1366.68 197.872 1452.84 198.675C1517.87 196.69 1614.51 213.806 1763.4 214.498C1912.29 215.19 1761.97 -183.262 1859.88 -255.361" stroke="#0078FF" stroke-width="2.52125"/>
<path d="M-30.8148 435.428C-25.0543 429.454 215.886 441.821 338.571 353.022C461.255 264.223 557.822 198.99 641.221 205.069C751.174 211.147 816.855 261.364 972.692 258.164C1080.47 261.931 1118.94 258.262 1246.43 225.052C1330.95 205.62 1378.53 209.197 1466.37 210.68C1531.9 209.221 1626.09 225.085 1772.98 225.815C1919.87 226.546 1738.4 -188.669 1839.1 -258.518" stroke="#007DFF" stroke-width="2.52125"/>
<path d="M-30.0133 424.08C-24.1242 418.083 223.897 439.884 346.831 355.121C469.766 270.359 564.6 210.33 649.784 216.728C760.315 223.126 827.077 271.559 986.131 267.012C1094.59 269.797 1131.45 264.95 1256.44 232.945C1340.42 214.092 1390.38 220.517 1479.89 222.681C1545.93 221.747 1637.66 236.359 1782.55 237.128C1927.45 237.897 1714.83 -194.081 1818.32 -261.679" stroke="#0082FF" stroke-width="2.52125"/>
<path d="M-29.2117 412.738C-23.194 406.718 231.908 437.952 355.092 357.226C478.276 276.499 571.378 221.674 658.347 228.392C769.455 235.111 837.299 281.759 999.569 275.864C1108.72 277.668 1143.97 271.644 1266.46 240.843C1349.89 222.568 1402.23 231.841 1493.42 234.686C1559.96 234.278 1649.23 247.638 1792.13 248.446C1935.03 249.253 1691.26 -199.488 1797.54 -264.836" stroke="#0087FF" stroke-width="2.52125"/>
<path d="M-28.4101 401.39C-22.2637 395.347 239.92 436.015 363.353 359.325C486.786 282.635 578.156 233.014 666.909 240.052C778.596 247.09 847.521 291.953 1013.01 284.711C1122.85 285.535 1156.48 278.332 1276.47 248.736C1359.36 231.04 1414.09 243.161 1506.95 246.687C1573.99 246.805 1660.8 258.912 1801.71 259.758C1942.61 260.604 1667.69 -204.9 1776.75 -267.997" stroke="#008CFF" stroke-width="2.52125"/>
<path d="M-27.6196 390.052C-21.3446 383.986 247.92 434.088 371.603 361.434C495.286 288.781 584.922 244.363 675.461 251.721C787.725 259.079 857.732 302.158 1026.44 293.568C1136.96 293.411 1168.98 285.03 1286.48 256.639C1368.82 239.522 1425.93 254.491 1520.46 258.697C1588.01 259.341 1672.37 270.196 1811.27 271.081C1950.17 271.965 1644.11 -210.302 1755.96 -271.149" stroke="#0092FF" stroke-width="2.52125"/>
<path d="M-26.8181 378.705C-20.4145 372.616 255.931 432.151 379.863 363.534C503.796 294.916 591.7 255.703 684.023 263.38C796.865 271.058 867.954 312.353 1039.87 302.415C1151.09 301.277 1181.5 291.718 1296.49 264.532C1378.28 247.993 1437.78 265.811 1533.99 270.698C1602.03 271.867 1683.94 281.47 1820.85 282.393C1957.75 283.316 1620.54 -215.714 1735.18 -274.31" stroke="#0097FF" stroke-width="2.52125"/>
<path d="M-26.0165 367.357C-19.4843 361.245 263.942 430.214 388.124 365.633C512.306 301.052 598.478 267.042 692.586 275.04C806.006 283.038 878.176 322.548 1053.31 311.263C1165.21 309.144 1194.01 298.406 1306.51 272.425C1387.75 256.465 1449.63 277.131 1547.52 282.698C1616.06 284.393 1695.51 292.744 1830.42 293.706C1965.33 294.667 1596.97 -221.125 1714.4 -277.472" stroke="#009CFF" stroke-width="2.52125"/>
<path d="M-25.215 356.02C-18.5542 349.885 271.953 428.287 396.385 367.743C520.816 307.198 605.255 278.392 701.148 286.709C815.146 295.027 888.397 332.753 1066.75 320.12C1179.34 317.02 1206.53 305.104 1316.52 280.329C1397.22 264.947 1461.48 288.461 1561.04 294.709C1630.09 296.93 1707.08 304.028 1840 305.028C1972.91 306.028 1573.4 -226.527 1693.62 -280.623" stroke="#00A1FF" stroke-width="2.52125"/>
<path d="M-24.4135 344.673C-17.624 338.514 279.965 426.35 404.646 369.842C529.327 313.334 612.033 289.731 709.711 298.369C824.287 307.006 898.62 342.948 1080.19 328.967C1193.46 324.887 1219.04 311.792 1326.54 288.222C1406.69 273.418 1473.33 299.781 1574.57 306.709C1644.12 309.456 1718.66 315.302 1849.57 316.341C1980.49 317.379 1549.83 -231.939 1672.83 -283.785" stroke="#00A7FF" stroke-width="2.52125"/>
<path d="M-23.623 333.325C-16.7049 327.144 287.965 424.413 412.895 371.941C537.826 319.469 618.8 301.071 718.263 310.028C833.416 318.986 908.83 353.143 1093.62 337.815C1207.58 332.753 1231.54 318.481 1336.54 296.115C1416.15 281.89 1485.17 311.101 1588.08 318.71C1658.14 321.982 1730.22 326.577 1859.14 327.653C1988.05 328.73 1526.25 -237.351 1652.04 -286.946" stroke="#00ACFF" stroke-width="2.52125"/>
<path d="M-22.8215 321.987C-15.7748 315.783 295.976 422.486 421.156 374.051C546.336 325.615 625.577 312.42 726.825 321.697C842.557 330.975 919.052 363.347 1107.06 346.672C1221.7 340.629 1244.06 325.179 1346.56 304.017C1425.62 290.371 1497.02 322.43 1601.61 330.72C1672.17 334.518 1741.79 337.86 1868.71 338.976C1995.63 340.091 1502.68 -242.753 1631.26 -290.098" stroke="#00B1FF" stroke-width="2.52125"/>
<path d="M-22.0199 310.64C-14.8445 304.412 303.987 420.55 429.417 376.15C554.847 331.751 632.355 323.76 735.388 333.357C851.697 342.954 929.274 373.542 1120.49 355.519C1235.83 348.496 1256.57 331.867 1356.57 311.911C1435.09 298.843 1508.87 333.751 1615.14 342.721C1686.2 347.045 1753.36 349.135 1878.29 350.289C2003.21 351.442 1479.11 -248.165 1610.48 -293.259" stroke="#00B6FF" stroke-width="2.52125"/>
<path d="M-21.2182 299.293C-13.9142 293.042 311.998 418.613 437.678 378.25C563.357 337.887 639.133 335.099 743.951 345.017C860.838 354.934 939.496 383.737 1133.93 364.367C1249.96 356.362 1269.09 338.555 1366.59 319.804C1444.56 307.315 1520.72 345.071 1628.66 354.722C1700.23 359.571 1764.93 360.409 1887.86 361.601C2010.79 362.794 1455.55 -253.576 1589.7 -296.42" stroke="#00BBFF" stroke-width="2.52125"/>
<path d="M-20.4167 287.95C-12.984 281.676 320.01 416.681 445.938 380.354C571.867 344.027 645.911 346.444 752.513 356.681C869.978 366.918 949.718 393.937 1147.37 373.219C1264.08 364.234 1281.6 345.248 1376.6 327.702C1454.02 315.792 1532.57 356.395 1642.19 366.727C1714.25 372.102 1776.51 371.688 1897.44 372.919C2018.37 374.15 1431.98 -258.983 1568.91 -299.577" stroke="#00C1FF" stroke-width="2.52125"/>
<path d="M-19.6262 276.607C-12.065 270.31 328.01 414.748 454.188 382.458C580.367 350.168 652.678 357.788 761.065 368.345C879.108 378.902 959.929 404.136 1160.8 382.071C1278.2 372.105 1294.11 351.941 1386.61 335.599C1463.48 324.268 1544.41 367.72 1655.71 378.732C1728.27 384.633 1788.07 382.967 1907 384.236C2025.93 385.505 1408.4 -264.39 1548.12 -302.734" stroke="#00C6FF" stroke-width="2.52125"/>
<path d="M-18.8247 265.26C-11.1348 258.94 336.021 412.812 462.449 384.558C588.877 356.304 659.455 369.128 769.627 380.005C888.248 390.882 970.151 414.332 1174.24 390.919C1292.32 379.971 1306.62 358.63 1396.62 343.493C1472.95 332.74 1556.26 379.04 1669.23 390.733C1742.3 397.16 1799.64 394.241 1916.58 395.549C2033.51 396.857 1384.83 -269.802 1527.34 -305.895" stroke="#00CBFF" stroke-width="2.52125"/>
<path d="M-18.0233 253.918C-10.2048 247.575 344.032 410.88 470.71 386.662C597.387 362.444 666.233 380.472 778.19 391.669C897.388 402.866 980.372 424.531 1187.68 399.771C1306.45 387.843 1319.13 365.323 1406.64 351.391C1482.42 341.217 1568.11 390.365 1682.76 402.739C1756.33 409.691 1811.21 405.52 1926.15 406.866C2041.09 408.213 1361.26 -275.209 1506.56 -309.051" stroke="#00D0FF" stroke-width="2.52125"/>
<path d="M-17.2217 242.575C-9.27458 236.209 352.043 408.948 478.97 388.767C605.897 368.585 673.011 391.816 786.752 403.333C906.529 414.85 990.594 434.731 1201.11 408.623C1320.57 395.714 1331.65 372.016 1416.65 359.289C1491.89 349.693 1579.96 401.69 1696.29 414.744C1770.36 422.222 1822.79 416.799 1935.73 418.184C2048.67 419.569 1337.69 -280.616 1485.78 -312.208" stroke="#00D6FF" stroke-width="2.52125"/>
<path d="M-16.4201 231.228C-8.34431 224.839 360.055 407.011 487.231 390.866C614.408 374.721 679.788 403.156 795.315 414.993C915.67 426.83 1000.82 444.926 1214.55 417.47C1334.7 403.581 1344.16 378.704 1426.67 367.182C1501.36 358.165 1591.81 413.01 1709.81 426.745C1784.39 434.749 1834.36 428.074 1945.3 429.497C2056.25 430.92 1314.12 -286.027 1464.99 -315.369" stroke="#00DBFF" stroke-width="2.52125"/>
<path d="M-15.6296 219.885C-7.42523 213.473 368.055 405.079 495.481 392.97C622.907 380.861 686.555 414.5 803.867 426.657C924.799 438.814 1011.03 455.126 1227.98 426.323C1348.81 411.452 1356.67 385.397 1436.67 375.08C1510.82 366.642 1603.65 424.335 1723.33 438.75C1798.41 447.28 1845.92 439.353 1954.87 440.814C2063.81 442.276 1290.54 -291.434 1444.2 -318.526" stroke="#00E0FF" stroke-width="2.52125"/>
<path d="M-14.8281 208.543C-6.4951 202.107 376.066 403.147 503.742 395.075C631.417 387.002 693.333 425.845 812.429 438.322C933.939 450.798 1021.25 465.326 1241.42 435.175C1362.94 419.323 1369.18 392.09 1446.69 382.978C1520.28 375.118 1615.5 435.66 1736.86 450.756C1812.44 459.811 1857.49 450.632 1964.44 452.132C2071.39 453.632 1266.97 -296.841 1423.42 -321.682" stroke="#00E5FF" stroke-width="2.52125"/>
<path d="M-14.0265 197.195C-5.56484 190.737 384.077 401.211 512.002 397.174C639.928 393.138 700.111 437.184 820.992 449.981C943.08 462.778 1031.47 475.521 1254.86 444.022C1377.07 427.19 1381.69 398.779 1456.7 390.871C1529.75 383.59 1627.35 446.98 1750.38 462.756C1826.47 472.337 1869.07 461.906 1974.02 463.444C2078.97 464.983 1243.4 -302.253 1402.64 -324.844" stroke="#00EAFF" stroke-width="2.52125"/>
</g>
<g opacity="0.1">
<path d="M1980.38 723C1973.26 735.734 1523.41 1490.76 1417.14 1490.76C1310.87 1490.76 1262.41 1394 1160.7 1368.23C1059 1342.46 984.82 1320.93 796.944 1385.46C695.052 1420.46 692.55 1478.59 632.435 1491.76C572.319 1504.93 421.077 1459.32 222.611 1459.32C24.1445 1459.32 -416.43 1570.57 -467.691 1700.09" stroke="#001AFF" stroke-width="1.9234"/>
<path d="M1945.19 1257.99C1935.97 1265.44 1510 1012.5 1372.38 1012.5C1234.75 1012.5 1171.99 955.852 1040.29 940.765C908.577 925.678 812.509 913.073 569.201 950.853C437.247 971.343 434.008 1005.38 356.156 1013.09C278.304 1020.8 170.952 944.607 37.0537 925.678C-45.1772 914.053 -88.2801 927.492 -198.825 925.678C-309.37 923.864 621.24 1825.63 447.271 1849.03" stroke="#00F0FF" stroke-width="1.9234"/>
<path d="M1979.52 736.052C1975.82 742.445 1853.98 923.535 1727.07 1109.24C1600.16 1294.95 1462.99 1477.72 1407.94 1477.35C1301.05 1476.98 1251.43 1382.27 1146.27 1358.06C1043.83 1333.41 971.383 1313.24 786.19 1376.38C684.885 1410.72 679.826 1465.57 617.911 1477.96C557.256 1490.52 408.651 1446.35 212.329 1446.3C16.0075 1446.26 -391.123 1576.79 -445.377 1703.72" stroke="#001FFF" stroke-width="1.9234"/>
<path d="M1978.66 749.099C1974.82 755.519 1845.37 925.757 1718.2 1106.82C1591.03 1287.88 1455.72 1464.67 1398.75 1463.93C1291.24 1463.2 1240.46 1370.54 1131.85 1347.87C1028.67 1324.36 957.947 1305.54 775.437 1367.3C674.718 1400.97 667.102 1452.55 603.387 1464.15C542.193 1476.11 396.225 1433.38 202.048 1433.29C7.87063 1433.2 -365.817 1583.01 -423.063 1707.36" stroke="#0024FF" stroke-width="1.9234"/>
<path d="M1977.81 762.15C1973.84 768.597 1836.78 927.985 1709.34 1104.4C1581.9 1280.83 1448.45 1451.63 1389.57 1450.52C1281.44 1449.42 1229.49 1358.82 1117.43 1337.7C1013.51 1315.31 944.522 1297.85 764.696 1358.22C664.563 1391.22 654.39 1439.53 588.876 1450.34C527.142 1461.7 383.812 1420.41 191.779 1420.28C-0.253765 1420.14 -340.497 1589.24 -400.737 1710.99" stroke="#0029FF" stroke-width="1.9234"/>
<path d="M1976.95 775.197C1972.84 781.67 1828.18 930.207 1700.47 1101.98C1572.76 1273.76 1441.17 1438.58 1380.37 1437.11C1271.62 1435.63 1218.52 1347.08 1103 1327.52C998.346 1306.26 931.085 1290.15 753.943 1349.14C654.396 1381.47 641.666 1426.5 574.352 1436.54C512.079 1447.29 371.386 1407.43 181.498 1407.26C-8.39062 1407.08 -315.191 1595.45 -378.423 1714.62" stroke="#002EFF" stroke-width="1.9234"/>
<path d="M1976.09 788.243C1971.84 794.743 1819.58 932.429 1691.6 1099.56C1563.63 1266.7 1433.9 1425.53 1371.18 1423.69C1261.81 1421.85 1207.54 1335.35 1088.57 1317.33C983.178 1297.21 917.648 1282.45 743.189 1340.05C644.229 1371.72 628.941 1413.47 559.828 1422.73C497.015 1432.87 358.96 1394.46 171.216 1394.24C-16.5277 1394.02 -289.884 1601.67 -356.11 1718.25" stroke="#0034FF" stroke-width="1.9234"/>
<path d="M1975.23 801.295C1970.84 807.821 1810.98 934.657 1682.73 1097.15C1554.49 1259.64 1426.62 1412.49 1361.99 1410.28C1251.99 1408.07 1196.57 1323.63 1074.14 1307.16C968.011 1288.16 904.212 1274.76 732.436 1330.97C634.062 1361.98 616.217 1400.45 545.304 1408.92C481.952 1418.46 346.535 1381.49 160.935 1381.23C-24.6646 1380.96 -264.578 1607.9 -333.796 1721.89" stroke="#0039FF" stroke-width="1.9234"/>
<path d="M1974.37 814.342C1969.84 820.894 1802.38 936.879 1673.86 1094.73C1545.35 1252.58 1419.34 1399.44 1352.79 1396.86C1242.18 1394.29 1185.59 1311.89 1059.71 1296.97C952.845 1279.1 890.775 1267.06 721.683 1321.89C623.896 1352.23 603.493 1387.43 530.781 1395.11C466.889 1404.05 334.109 1368.52 150.654 1368.21C-32.8008 1367.9 -239.27 1614.12 -311.481 1725.52" stroke="#003EFF" stroke-width="1.9234"/>
<path d="M1973.52 827.388C1968.86 833.967 1793.79 939.101 1665.01 1092.31C1536.23 1245.52 1412.08 1386.39 1343.61 1383.44C1232.38 1380.5 1174.63 1300.16 1045.29 1286.79C937.689 1270.05 877.35 1259.36 710.941 1312.8C613.74 1342.48 590.781 1374.4 516.268 1381.31C451.838 1389.64 321.695 1355.55 140.385 1355.19C-40.9262 1354.84 -213.952 1620.34 -289.156 1729.15" stroke="#0043FF" stroke-width="1.9234"/>
<path d="M1972.66 840.44C1967.86 847.046 1785.19 941.329 1656.14 1089.89C1527.09 1238.46 1404.8 1373.34 1334.42 1370.03C1222.56 1366.72 1163.65 1288.44 1030.86 1276.62C922.522 1261 863.913 1251.67 700.188 1303.73C603.573 1332.73 578.056 1361.38 501.744 1367.5C436.774 1375.23 309.27 1342.58 130.103 1342.18C-49.0631 1341.78 -188.646 1626.56 -266.843 1732.79" stroke="#0049FF" stroke-width="1.9234"/>
<path d="M1971.8 853.486C1966.86 860.118 1776.58 943.55 1647.27 1087.47C1517.95 1231.39 1397.52 1360.3 1325.22 1356.62C1212.75 1352.94 1152.68 1276.7 1016.44 1266.43C907.354 1251.95 850.476 1243.97 689.434 1294.64C593.406 1322.98 565.331 1348.35 487.22 1353.69C421.711 1360.81 296.843 1329.6 119.821 1329.16C-57.2004 1328.72 -163.34 1632.78 -244.529 1736.42" stroke="#004EFF" stroke-width="1.9234"/>
<path d="M1970.94 866.533C1965.86 873.192 1767.98 945.773 1638.4 1085.05C1508.81 1224.33 1390.24 1347.25 1316.03 1343.2C1202.93 1339.15 1141.7 1264.97 1002.01 1256.25C892.188 1242.89 837.04 1236.27 678.682 1285.56C583.24 1313.23 552.608 1335.33 472.697 1339.88C406.648 1346.4 284.418 1316.63 109.541 1316.15C-65.3368 1315.66 -138.032 1639 -222.215 1740.05" stroke="#0053FF" stroke-width="1.9234"/>
<path d="M1970.08 879.585C1964.86 886.27 1759.38 948.001 1629.53 1082.64C1499.67 1217.27 1382.97 1334.2 1306.83 1329.79C1193.12 1325.37 1130.72 1253.24 987.577 1246.08C877.021 1233.85 823.603 1228.58 667.928 1276.48C573.072 1303.49 539.883 1322.31 458.173 1326.08C391.584 1331.99 271.992 1303.66 99.2592 1303.13C-73.4739 1302.6 -112.726 1645.22 -199.901 1743.68" stroke="#0058FF" stroke-width="1.9234"/>
<path d="M1969.23 892.631C1963.87 899.343 1750.79 950.223 1620.67 1080.22C1490.55 1210.21 1375.7 1321.16 1297.65 1316.37C1183.32 1311.59 1119.76 1241.51 973.16 1235.89C861.866 1224.79 810.178 1220.88 657.187 1267.39C562.918 1293.74 527.171 1309.28 443.661 1312.27C376.533 1317.58 259.579 1290.69 88.9904 1290.12C-81.5983 1289.54 -87.4069 1651.44 -177.575 1747.32" stroke="#005DFF" stroke-width="1.9234"/>
<path d="M1968.37 905.678C1962.88 912.416 1742.19 952.445 1611.8 1077.8C1481.41 1203.15 1368.42 1308.11 1288.46 1302.96C1173.5 1297.8 1108.79 1229.78 958.731 1225.71C846.699 1215.74 796.741 1213.18 646.434 1258.31C552.751 1283.99 514.447 1296.26 429.138 1298.46C361.47 1303.17 247.154 1277.72 78.7093 1277.1C-89.7349 1276.48 -62.1001 1657.66 -155.261 1750.95" stroke="#0063FF" stroke-width="1.9234"/>
<path d="M1967.51 918.73C1961.88 925.495 1733.59 954.673 1602.93 1075.38C1472.27 1196.09 1361.15 1295.06 1279.27 1289.54C1163.69 1284.03 1097.81 1218.05 944.302 1215.54C831.532 1206.69 783.305 1205.49 635.681 1249.23C542.584 1274.24 501.723 1283.23 414.614 1284.66C346.407 1288.76 234.728 1264.75 68.4278 1264.09C-97.872 1263.42 -36.7934 1663.89 -132.948 1754.58" stroke="#0068FF" stroke-width="1.9234"/>
<path d="M1966.65 931.776C1960.88 938.568 1724.99 956.895 1594.06 1072.96C1463.14 1189.03 1353.87 1282.02 1270.07 1276.13C1153.87 1270.24 1086.84 1206.32 929.872 1205.35C816.364 1197.64 769.868 1197.79 624.927 1240.15C532.417 1264.49 488.999 1270.21 400.09 1270.85C331.344 1274.34 222.302 1251.78 58.1463 1251.07C-106.009 1250.36 -11.487 1670.11 -110.634 1758.21" stroke="#006DFF" stroke-width="1.9234"/>
<path d="M1965.79 944.823C1959.88 951.641 1716.38 959.118 1585.19 1070.54C1454 1181.96 1346.59 1268.97 1260.88 1262.71C1144.06 1256.46 1075.86 1194.59 915.443 1195.17C801.197 1188.58 756.431 1190.09 614.174 1231.06C522.25 1254.74 476.274 1257.18 385.566 1257.04C316.281 1259.93 209.876 1238.8 47.8654 1238.05C-114.146 1237.3 13.8198 1676.33 -88.32 1761.84" stroke="#0072FF" stroke-width="1.9234"/>
<path d="M1964.94 957.875C1958.89 964.719 1707.79 961.345 1576.33 1068.13C1444.87 1174.91 1339.33 1255.92 1251.7 1249.3C1134.26 1242.68 1064.9 1182.86 901.026 1184.99C786.042 1179.53 743.006 1182.4 603.433 1221.98C512.095 1245 463.562 1244.16 371.054 1243.24C301.229 1245.52 197.462 1225.84 37.596 1225.04C-122.271 1224.24 39.1383 1682.55 -65.9944 1765.48" stroke="#0078FF" stroke-width="1.9234"/>
<path d="M1964.08 970.921C1957.89 977.792 1699.19 963.567 1567.46 1065.71C1435.73 1167.84 1332.05 1242.88 1242.5 1235.88C1124.44 1228.89 1053.92 1171.13 886.597 1174.81C770.875 1170.48 729.569 1174.7 592.68 1212.9C501.928 1235.25 450.838 1231.14 356.53 1229.43C286.166 1231.11 185.037 1212.86 27.3146 1212.02C-130.408 1211.18 64.4451 1688.77 -43.6805 1769.11" stroke="#007DFF" stroke-width="1.9234"/>
<path d="M1963.22 983.973C1956.89 990.871 1690.59 965.795 1558.59 1063.29C1426.6 1160.79 1324.77 1229.83 1233.31 1222.47C1114.63 1215.11 1042.95 1159.41 872.168 1164.64C755.708 1161.43 716.133 1167.01 581.927 1203.82C491.761 1225.51 438.114 1218.12 342.007 1215.63C271.103 1216.7 172.611 1199.89 17.0338 1199.01C-138.544 1198.12 89.752 1694.99 -21.3664 1772.75" stroke="#0082FF" stroke-width="1.9234"/>
<path d="M1962.36 997.019C1955.9 1003.94 1681.99 968.017 1549.72 1060.87C1417.46 1153.72 1317.49 1216.78 1224.11 1209.06C1104.82 1201.33 1031.97 1147.67 857.738 1154.45C740.541 1152.38 702.696 1159.31 571.173 1194.74C481.594 1215.76 425.389 1205.09 327.482 1201.82C256.039 1202.29 160.185 1186.92 6.75201 1185.99C-146.681 1185.06 115.058 1701.21 0.946883 1776.38" stroke="#0087FF" stroke-width="1.9234"/>
<path d="M1961.5 1010.07C1954.9 1017.02 1673.39 970.246 1540.85 1058.46C1408.32 1146.67 1310.22 1203.74 1214.92 1195.65C1095 1187.55 1020.99 1135.95 843.309 1144.28C725.374 1143.33 689.259 1151.62 560.42 1185.66C471.427 1206.01 412.665 1192.07 312.958 1188.01C240.976 1187.88 147.76 1173.95 -3.52914 1172.98C-154.818 1172.01 140.365 1707.44 23.2606 1780.01" stroke="#008CFF" stroke-width="1.9234"/>
<path d="M1960.65 1023.11C1953.91 1030.09 1664.8 972.462 1532 1056.03C1399.2 1139.6 1302.95 1190.69 1205.74 1182.22C1085.2 1173.76 1010.03 1124.21 828.892 1134.09C710.219 1134.27 675.834 1143.91 549.678 1176.57C461.272 1196.26 399.953 1179.04 298.447 1174.2C225.925 1173.46 135.346 1160.97 -13.7985 1159.96C-162.943 1158.94 165.684 1713.65 45.5866 1783.64" stroke="#0092FF" stroke-width="1.9234"/>
<path d="M1959.79 1036.16C1952.91 1043.17 1656.19 974.69 1523.13 1053.61C1390.06 1132.54 1295.67 1177.64 1196.55 1168.81C1075.38 1159.98 999.056 1112.48 814.462 1123.91C695.052 1125.22 662.397 1136.22 538.925 1167.49C451.106 1186.51 387.229 1166.02 283.923 1160.4C210.862 1159.05 122.92 1148.01 -24.0796 1146.94C-171.08 1145.88 190.99 1719.88 67.9005 1787.28" stroke="#0097FF" stroke-width="1.9234"/>
<path d="M1958.93 1049.22C1951.91 1056.25 1647.59 976.918 1514.26 1051.2C1380.92 1125.48 1288.4 1164.6 1187.35 1155.4C1065.57 1146.2 988.08 1100.76 800.033 1113.74C679.884 1116.18 648.96 1128.53 528.172 1158.41C440.938 1176.77 374.504 1153 269.399 1146.59C195.798 1144.64 110.495 1135.04 -34.361 1133.93C-179.217 1132.83 216.297 1726.1 90.2139 1790.91" stroke="#009CFF" stroke-width="1.9234"/>
<path d="M1958.07 1062.26C1950.91 1069.31 1638.99 979.134 1505.39 1048.77C1371.78 1118.41 1281.12 1151.55 1178.16 1141.98C1055.76 1132.41 977.105 1089.02 785.604 1103.55C664.718 1107.12 635.524 1120.82 517.419 1149.32C430.772 1167.01 361.78 1139.96 254.875 1132.78C180.736 1130.22 98.0693 1122.06 -44.6419 1120.91C-187.353 1119.76 241.604 1732.31 112.528 1794.54" stroke="#00A1FF" stroke-width="1.9234"/>
<path d="M1957.21 1075.31C1949.92 1082.39 1630.39 981.362 1496.52 1046.36C1362.65 1111.36 1273.84 1138.5 1168.96 1128.57C1045.94 1118.63 966.13 1077.29 771.175 1093.37C649.551 1098.07 622.087 1113.13 506.666 1140.24C420.605 1157.27 349.056 1126.94 240.352 1118.98C165.672 1115.82 85.6435 1109.09 -54.9233 1107.9C-195.49 1106.7 266.91 1738.54 134.842 1798.17" stroke="#00A7FF" stroke-width="1.9234"/>
<path d="M1956.36 1088.36C1948.93 1095.47 1621.8 983.59 1487.66 1043.94C1353.52 1104.3 1266.58 1125.46 1159.78 1115.16C1036.14 1104.85 955.166 1065.57 756.757 1083.2C634.395 1089.02 608.662 1105.44 495.924 1131.16C410.449 1147.52 336.343 1113.92 225.839 1105.17C150.621 1101.41 73.2295 1096.12 -65.1929 1094.88C-203.615 1093.65 292.229 1744.76 157.167 1801.81" stroke="#00ACFF" stroke-width="1.9234"/>
<path d="M1955.5 1101.4C1947.93 1108.54 1613.2 985.806 1478.79 1041.52C1344.38 1097.23 1259.3 1112.41 1150.59 1101.74C1026.33 1091.06 944.191 1053.83 742.328 1073.01C619.228 1079.96 595.225 1097.73 485.171 1122.07C400.283 1137.77 323.619 1100.89 211.316 1091.36C135.558 1086.99 60.8042 1083.14 -75.4737 1081.86C-211.752 1080.58 317.536 1750.98 179.481 1805.43" stroke="#00B1FF" stroke-width="1.9234"/>
<path d="M1954.64 1114.45C1946.93 1121.62 1604.6 988.034 1469.92 1039.1C1335.24 1090.17 1252.02 1099.36 1141.39 1088.32C1016.51 1077.29 933.215 1042.1 727.899 1062.83C604.061 1070.91 581.788 1090.04 474.418 1112.99C390.116 1128.02 310.895 1087.87 196.792 1077.55C120.494 1072.58 48.3782 1070.18 -85.7553 1068.85C-219.889 1067.52 342.842 1757.2 201.795 1809.07" stroke="#00B6FF" stroke-width="1.9234"/>
<path d="M1953.77 1127.51C1945.93 1134.7 1595.99 990.262 1461.05 1036.69C1326.11 1083.11 1244.74 1086.32 1132.2 1074.91C1006.7 1063.51 922.24 1030.38 713.47 1052.66C588.894 1061.86 568.352 1082.35 463.664 1103.91C379.949 1118.28 298.171 1074.85 182.268 1063.75C105.431 1058.17 35.9529 1057.21 -96.0362 1055.84C-228.025 1054.47 368.149 1763.43 224.109 1812.71" stroke="#00BBFF" stroke-width="1.9234"/>
<path d="M1952.91 1140.55C1944.93 1147.77 1587.39 992.484 1452.18 1034.27C1316.97 1076.05 1237.47 1073.27 1123.01 1061.5C996.882 1049.72 911.264 1018.64 699.041 1042.47C573.727 1052.81 554.915 1074.65 452.911 1094.83C369.782 1108.53 285.447 1061.83 167.744 1049.94C90.3681 1043.76 23.5272 1044.24 -106.317 1042.82C-236.162 1041.4 393.456 1769.65 246.423 1816.34" stroke="#00C1FF" stroke-width="1.9234"/>
<path d="M1952.07 1153.6C1943.95 1160.84 1578.8 994.707 1443.32 1031.85C1307.84 1068.99 1230.2 1060.22 1113.82 1048.08C987.08 1035.94 900.301 1006.91 684.623 1032.29C558.572 1043.76 541.49 1066.95 442.17 1085.75C359.627 1098.78 272.734 1048.8 153.232 1036.13C75.3165 1029.35 11.1131 1031.26 -116.587 1029.8C-244.287 1028.34 418.774 1775.87 268.748 1819.97" stroke="#00C6FF" stroke-width="1.9234"/>
<path d="M1951.2 1166.65C1942.95 1173.92 1570.2 996.934 1434.45 1029.43C1298.71 1061.93 1222.92 1047.18 1104.63 1034.67C977.265 1022.16 889.325 995.186 670.194 1022.12C543.404 1034.71 528.053 1059.26 431.416 1076.67C349.46 1089.03 260.01 1035.78 138.708 1022.33C60.2531 1014.94 -1.31258 1018.29 -126.868 1016.79C-252.424 1015.29 444.081 1782.09 291.062 1823.6" stroke="#00CBFF" stroke-width="1.9234"/>
<path d="M1950.34 1179.7C1941.95 1186.99 1561.6 999.156 1425.58 1027.01C1289.57 1054.87 1215.65 1034.13 1095.44 1021.25C967.451 1008.37 878.35 983.454 655.765 1011.93C528.238 1025.65 514.617 1051.56 420.663 1067.58C339.293 1079.28 247.286 1022.75 124.185 1008.52C45.1904 1000.52 -13.7378 1005.32 -137.149 1003.77C-260.561 1002.22 469.388 1788.31 313.376 1827.23" stroke="#00D0FF" stroke-width="1.9234"/>
<path d="M1949.48 1192.74C1940.95 1200.07 1553 1001.38 1416.71 1024.59C1280.43 1047.8 1208.37 1021.08 1086.24 1007.84C957.637 994.589 867.375 971.722 641.336 1001.75C513.071 1016.6 501.18 1043.86 409.91 1058.5C329.126 1069.53 234.562 1009.73 109.661 994.711C30.127 986.11 -26.1637 992.348 -147.431 990.755C-268.698 989.162 494.694 1794.53 335.69 1830.87" stroke="#00D6FF" stroke-width="1.9234"/>
<path d="M1948.62 1205.8C1939.95 1213.14 1544.4 1003.61 1407.84 1022.18C1271.29 1040.75 1201.09 1008.04 1077.05 994.425C947.823 980.81 856.399 959.995 626.906 991.576C497.903 1007.55 487.743 1036.17 399.157 1049.42C318.959 1059.79 221.837 996.706 95.1369 980.908C15.0635 971.702 -38.5894 979.38 -157.712 977.743C-276.835 976.106 520.001 1800.75 358.004 1834.5" stroke="#00DBFF" stroke-width="1.9234"/>
<path d="M1947.77 1218.84C1938.96 1226.22 1535.81 1005.83 1398.99 1019.76C1262.17 1033.68 1193.83 994.992 1067.87 981.009C938.02 967.026 845.436 948.264 612.489 981.394C482.748 998.498 474.318 1028.47 388.415 1040.33C308.804 1050.04 209.125 983.68 80.6252 967.099C0.0124385 957.288 -51.0031 966.406 -167.981 964.725C-284.959 963.044 545.32 1806.97 380.329 1838.13" stroke="#00E0FF" stroke-width="1.9234"/>
<path d="M1946.91 1231.89C1937.97 1239.29 1527.2 1008.05 1390.12 1017.34C1253.03 1026.62 1186.55 981.943 1058.67 967.592C928.206 953.241 834.46 936.532 598.06 971.212C467.581 989.445 460.881 1020.77 377.662 1031.25C298.638 1040.29 196.401 970.654 66.1016 953.29C-15.0506 942.875 -63.4287 953.433 -178.262 951.708C-293.096 949.982 570.626 1813.19 402.643 1841.76" stroke="#00E5FF" stroke-width="1.9234"/>
<path d="M1946.05 1244.94C1936.97 1252.37 1518.6 1010.28 1381.25 1014.92C1243.89 1019.56 1179.27 968.9 1049.48 954.181C918.391 939.462 823.485 924.805 583.63 961.035C452.414 980.396 447.444 1013.08 366.909 1022.17C288.47 1030.55 183.676 957.633 51.5772 939.487C-30.1144 928.466 -75.8548 940.465 -188.544 938.696C-301.233 936.926 595.933 1819.42 424.957 1845.4" stroke="#00EAFF" stroke-width="1.9234"/>
</g>
</g>
<defs>
<linearGradient id="paint0_linear_1_3" x1="1920" y1="-7.08633e-05" x2="582.5" y2="1058" gradientUnits="userSpaceOnUse">
<stop offset="0.0001" stop-color="#EFF8FF"/>
<stop offset="1" stop-color="#E3EBF2"/>
</linearGradient>
<clipPath id="clip0_1_3">
<rect width="1920" height="1080" fill="white"/>
</clipPath>
</defs>
</svg>
